<svg width="188" height="32" viewBox="0 0 188 32" fill="none" xmlns="http://www.w3.org/2000/svg">
<path fill-rule="evenodd" clip-rule="evenodd" d="M5.922 24.2824H10.058C11.656 24.2824 13.254 24 14.758 23.3412C20.962 20.7059 23.782 13.6471 21.244 7.43529C20.022 4.51765 17.672 2.16471 14.758 0.941177C13.254 0.282353 11.656 0 10.058 0H0V24.2824H3.384V3.48235H9.964C11.092 3.48235 12.22 3.67059 13.254 4.14118C15.416 4.98824 17.108 6.68235 17.954 8.84706C18.8 11.0118 18.8 13.3647 17.954 15.5294C17.108 17.6941 15.416 19.3882 13.254 20.2353C12.22 20.7059 11.092 20.8941 9.964 20.8941H7.144L5.922 24.2824ZM25.098 24.2824H28.482V7.24706H25.098V24.2824ZM28.482 3.48235H25.098V0H28.482V3.48235ZM34.122 30.4C36.096 31.3412 38.258 31.9059 40.514 31.9059C44.556 31.9059 49.256 29.6471 49.256 23.1529V7.15294H45.872V9.03529L45.12 8.56471C44.368 8 43.616 7.52941 42.676 7.24706C41.642 6.87059 40.608 6.68235 39.574 6.68235C38.446 6.68235 37.318 6.87059 36.19 7.34118C35.156 7.81176 34.216 8.47059 33.464 9.31765C32.712 10.1647 32.148 11.1059 31.772 12.2353C31.396 13.3647 31.114 14.5882 31.114 15.8118C31.114 17.0353 31.396 18.2588 31.866 19.2941C32.336 20.3294 32.994 21.3647 33.84 22.2118C34.686 23.0588 35.626 23.7176 36.754 24.1882C37.882 24.6588 39.01 24.8471 40.232 24.8471H40.326C41.266 24.8471 42.3 24.6588 43.24 24.3765L42.018 21.1765C41.454 21.3647 40.796 21.4588 40.232 21.4588C38.728 21.4588 37.318 20.8941 36.284 19.8588C35.25 18.8235 34.592 17.4118 34.686 15.9059C34.686 12.8 37.13 10.2588 40.232 10.2588H40.326C41.83 10.2588 43.24 10.8235 44.274 11.8588C45.308 12.8941 45.872 14.3059 45.872 15.8118V22.9647C45.872 27.8588 42.206 28.6118 40.138 28.6118C38.446 28.5176 36.848 28.0471 35.344 27.2941L34.122 30.4ZM56.306 24.2824H52.922V7.24706H56.306V24.2824ZM52.922 3.48235H56.306V0H52.922V3.48235ZM59.972 18.8235V2.63529H63.45V7.43529H67.022L68.244 10.8235H63.356V19.0118C63.356 19.4824 63.638 20.0471 64.014 20.4235C64.39 20.8941 64.86 21.0824 65.424 21.0824H67.492L68.714 24.4706H65.424C64.672 24.4706 63.92 24.2824 63.262 24C62.604 23.7176 62.04 23.2471 61.57 22.7765C61.1 22.2118 60.724 21.6471 60.442 20.9882C60.16 20.2353 59.972 19.5765 59.972 18.8235ZM78.208 6.68235C76.986 6.68235 75.858 6.87059 74.73 7.34118C73.696 7.81176 72.756 8.47059 72.004 9.22353C71.252 10.0706 70.594 11.0118 70.218 12.1412C69.748 13.2706 69.56 14.4941 69.56 15.7176C69.56 16.9412 69.748 18.0706 70.218 19.2C70.594 20.2353 71.252 21.2706 72.004 22.1176C72.756 22.9647 73.696 23.6235 74.73 24C75.858 24.4706 76.986 24.7529 78.208 24.6588C79.336 24.6588 80.464 24.4706 81.498 24L80.37 20.8941C79.806 21.0824 79.148 21.1765 78.584 21.1765C77.832 21.1765 77.08 21.0824 76.422 20.8C75.764 20.5176 75.106 20.1412 74.636 19.5765C72.474 17.4118 72.474 13.8353 74.636 11.5765C76.798 9.41176 80.37 9.41176 82.626 11.5765C83.66 12.6118 84.318 14.1176 84.318 15.5294V15.6235V24.1882H87.702V7.15294H84.318V9.03529L83.472 8.47059C82.814 7.90588 82.062 7.52941 81.216 7.24706C80.182 6.87059 79.242 6.68235 78.208 6.68235ZM94.94 24.2824H91.462V0H94.94V24.2824Z" fill="#002F57"/>
<path fill-rule="evenodd" clip-rule="evenodd" d="M118.534 24.2824H122.67L117.688 16.5647L118.158 16.3765C118.91 16 119.568 15.6235 120.132 15.0588C120.696 14.4941 121.26 13.9294 121.636 13.2706C122.106 12.6118 122.388 11.8588 122.67 11.1059L122.67 11.1059C122.952 10.2588 123.046 9.41177 123.046 8.56471C123.046 7.43529 122.858 6.30588 122.388 5.27059C121.542 3.2 119.85 1.6 117.782 0.658824C116.748 0.188235 115.62 0 114.492 0H105.562V24.2824H108.946V3.48235H114.492C115.902 3.48235 117.218 4.04706 118.158 4.98824C119.662 6.49412 120.038 8.65882 119.286 10.5412C119.004 11.1059 118.628 11.6706 118.158 12.2353C117.218 13.2706 115.902 13.7412 114.492 13.7412H112.424L111.202 17.2235H114.022L118.534 24.2824ZM126.054 24.2824H129.438V7.24706H126.054V24.2824ZM129.438 3.48235H126.054V0H129.438V3.48235ZM138.556 24.2824H143.256L149.366 7.24706H145.7L140.812 20.7059L135.924 7.24706H132.258L138.556 24.2824ZM168.166 17.5059H153.972C154.442 19.2941 156.134 21.3647 159.988 21.3647C161.68 21.3647 163.278 21.0824 164.782 20.4235L165.816 23.3412C164.03 24.1882 162.15 24.6588 160.27 24.6588C155.476 24.7529 150.4 22.1176 150.4 15.8118C150.306 14.6824 150.588 13.4588 151.058 12.3294C151.998 10.1647 153.69 8.47059 155.852 7.52941C158.108 6.58823 160.646 6.58823 162.902 7.52941C165.064 8.47059 166.756 10.1647 167.696 12.3294C168.166 13.3647 168.354 14.5882 168.354 15.8118C168.354 16.3765 168.26 16.9412 168.166 17.5059ZM164.688 14.0235H153.878L154.16 13.3647C154.442 12.7059 154.818 12.2353 155.288 11.7647C156.322 10.7294 157.732 10.1647 159.236 10.1647C160.74 10.1647 162.15 10.7294 163.184 11.7647C163.654 12.2353 164.03 12.8 164.312 13.3647L164.688 14.0235ZM174.746 7.15294V9.50588C175.874 7.81176 177.754 6.77647 179.916 6.68235V10.1647C178.506 10.2588 177.284 10.8235 176.344 11.7647C175.31 12.8 174.746 14.2118 174.746 15.7176V24.2824H171.362V7.15294H174.746Z" fill="#179AC7"/>
<path fill-rule="evenodd" clip-rule="evenodd" d="M185.18 5.55298C183.582 5.55298 182.36 6.87063 182.36 8.37651C182.454 9.97651 183.676 11.2 185.18 11.2C186.778 11.2 188 9.88239 188 8.37651C188 6.77651 186.684 5.55298 185.18 5.55298ZM185.18 5.92945C186.496 5.92945 187.624 7.05886 187.624 8.37651C187.624 9.78827 186.496 10.8236 185.18 10.8236C183.864 10.8236 182.736 9.69416 182.736 8.37651C182.736 7.05886 183.864 5.92945 185.18 5.92945ZM184.052 6.68239H185.368C185.932 6.58827 186.402 6.96474 186.496 7.52945V7.71768C186.496 8.18827 186.214 8.56474 185.838 8.65886L186.872 10.0706H186.12L185.18 8.75298H184.71V10.0706H183.958V6.68239H184.052ZM185.838 7.71768C185.838 8.00004 185.556 8.28239 185.274 8.28239V8.18827H184.71V7.15298H185.274C185.556 7.15298 185.838 7.43533 185.838 7.71768Z" fill="#179AC7"/>
</svg>
